<svg xmlns="http://www.w3.org/2000/svg" viewBox="0 0 24 24" width="48" height="48">
  <path fill="#E53935" d="M12 12.9l-2.13 2.09c-.56.56-.87 1.29-.87 2.07C9 18.68 10.35 20 12 20s3-1.32 3-2.94c0-.78-.31-1.52-.87-2.07L12 12.9zm0-8.39l-4.6 4.6c-1.14 1.14-1.78 2.65-1.78 4.26s.63 3.12 1.78 4.26C8.55 18.79 10.22 19.5 12 19.5s3.45-.71 4.6-1.87c1.14-1.14 1.78-2.65 1.78-4.26s-.63-3.12-1.78-4.26L12 4.51z"/>
  <path fill="#FF7043" d="M12 2C9.24 2 7 4.24 7 7c0 1.5.67 2.84 1.72 3.75L12 14l3.28-3.25C16.33 9.84 17 8.5 17 7c0-2.76-2.24-5-5-5zm0 8c-1.66 0-3-1.34-3-3s1.34-3 3-3 3 1.34 3 3-1.34 3-3 3z"/>
</svg>
